PathFileType	4	(X/Y/Z)	/Users/itak/Documents/Research/Walk-IL/dataset/trc/00042_00004.trc
DataRate	CameraRate	NumFrames	NumMarkers	Units	OrigDataRate	OrigDataStartFrame	OrigNumFrames
100.000000	100.000000	4	53	mm	100.000000	0	540
Frame#	Time	RPSI			LPSI			L3			STRN			T10			C7			CLAV			RBAK			LBAK			LSHO			LUPA			LAEL			LAOL			LWTS			LWPS			LFRA			LIFD			LHPS			LHTS			RSHO			RUPA			RAEL			RAOL			RWTS			RWPS			RFRA			RIFD			RHTS			RHPS			RBHD			LFHD			RFHD			LBHD			LHIP			RHIP			RASI			LASI			LKNE			LTHI			LANK			LTIP			LTOE			LMT1			LMT5			LHEE			RKNE			RTHI			RANK			RTIP			RTOE			RMT1			RMT5			RHEE			
		X1	Y1	Z1	X2	Y2	Z2	X3	Y3	Z3	X4	Y4	Z4	X5	Y5	Z5	X6	Y6	Z6	X7	Y7	Z7	X8	Y8	Z8	X9	Y9	Z9	X10	Y10	Z10	X11	Y11	Z11	X12	Y12	Z12	X13	Y13	Z13	X14	Y14	Z14	X15	Y15	Z15	X16	Y16	Z16	X17	Y17	Z17	X18	Y18	Z18	X19	Y19	Z19	X20	Y20	Z20	X21	Y21	Z21	X22	Y22	Z22	X23	Y23	Z23	X24	Y24	Z24	X25	Y25	Z25	X26	Y26	Z26	X27	Y27	Z27	X28	Y28	Z28	X29	Y29	Z29	X30	Y30	Z30	X31	Y31	Z31	X32	Y32	Z32	X33	Y33	Z33	X34	Y34	Z34	X35	Y35	Z35	X36	Y36	Z36	X37	Y37	Z37	X38	Y38	Z38	X39	Y39	Z39	X40	Y40	Z40	X41	Y41	Z41	X42	Y42	Z42	X43	Y43	Z43	X44	Y44	Z44	X45	Y45	Z45	X46	Y46	Z46	X47	Y47	Z47	X48	Y48	Z48	X49	Y49	Z49	X50	Y50	Z50	X51	Y51	Z51	X52	Y52	Z52	X53	Y53	Z53	

1	0	-1254.412353515625	1076.897583007812	174.2334899902344	-1253.490478515625	1067.18701171875	10.29563903808594	-1261.146606445312	1126.703857421875	81.80005645751953	-1042.12890625	1325.055541992188	92.88911437988281	-1289.884155273438	1271.397827148438	75.4449462890625	-1244.101806640625	1539.744018554688	63.11074447631836	-1084.494384765625	1450.689208984375	82.91272735595703	-1299.112426757812	1403.074829101562	141.2034606933594	-1253.41064453125	1496.146240234375	-35.69289398193359	-1144.80029296875	1502.527099609375	-102.2284774780273	-1169.0048828125	1373.721801757812	-177.9122467041016	-1169.908935546875	1154.971435546875	-196.7267456054688	-1231.912475585938	1146.92724609375	-110.9264144897461	-1102.502807617188	898.0061645507812	-129.6244506835938	-1174.966796875	888.4439697265625	-178.2427215576172	-1162.06884765625	1038.732055664062	-199.3862152099609	-1092.12060546875	712.668212890625	-104.5313720703125	-1148.26806640625	796.4179077148438	-173.2835388183594	-1086.210083007812	802.9661865234375	-138.9599151611328	-1181.391357421875	1528.778198242188	244.3088684082031	-1199.891235351562	1459.860595703125	315.6920471191406	-1237.02880859375	1192.824951171875	343.8536682128906	-1226.8095703125	1162.202880859375	248.8224029541016	-1107.834594726562	930.5816040039062	332.9906921386719	-1177.364868164062	919.6921997070312	393.9367980957031	-1226.035522460938	1117.174438476562	363.4249877929688	-1098.728637695312	747.6434936523438	321.3208312988281	-1077.8125	821.8643798828125	353.1063842773438	-1137.07470703125	819.4146118164062	399.7966613769531	-1194.300659179688	1721.238159179688	-8.113876342773438	-1056.551513671875	1749.278198242188	159.247314453125	-1030.322021484375	1753.148559570312	64.08591461181641	-1226.012817382812	1714.338500976562	132.6849365234375	-1156.43408203125	962.53369140625	-96.91900634765625	-1154.078491210938	951.2787475585938	264.4941711425781	-1039.347412109375	998.7088012695312	204.7309875488281	-1041.439819335938	1012.215515136719	-30.48185348510742	-1123.641845703125	518.3164672851562	-37.51419830322266	-1142.44482421875	654.2745361328125	-75.61131286621094	-1226.870239257812	42.5881233215332	-30.92925071716309	-1207.47216796875	288.6856689453125	-53.19108963012695	-1008.328002929688	41.61737060546875	36.15513229370117	-1068.06103515625	50.49708938598633	51.95761489868164	-1102.99951171875	42.42530059814453	-48.53927230834961	-1297.412231445312	50.78084564208984	20.74887275695801	-1135.384887695312	525.5908203125	220.1362762451172	-1120.175903320312	794.3659057617188	269.88037109375	-1242.607788085938	46.46784591674805	181.7351837158203	-1162.039184570312	404.2330017089844	215.6487274169922	-1007.731994628906	45.80241012573242	151.6064453125	-1069.79296875	50.91405868530273	119.1140747070312	-1093.706665039062	45.19745254516602	212.1499633789062	-1293.670043945312	46.60847091674805	133.55908203125	
2	0.01	-1254.530395507812	1076.905883789062	174.2296142578125	-1253.484375	1067.176635742188	10.30947589874268	-1261.170043945312	1126.696655273438	81.80622100830078	-1042.208129882812	1325.077514648438	93.00528717041016	-1289.953125	1271.378662109375	75.38797760009766	-1244.274658203125	1539.7568359375	63.06962203979492	-1084.603881835938	1450.710693359375	82.99542236328125	-1299.200317382812	1403.071899414062	141.1780395507812	-1253.453979492188	1496.118774414062	-35.73020172119141	-1144.792358398438	1502.504516601562	-102.1871337890625	-1168.8388671875	1373.705444335938	-177.8783721923828	-1169.632202148438	1154.957275390625	-196.7270660400391	-1231.7509765625	1146.871337890625	-110.996337890625	-1102.193969726562	898.0380859375	-129.6474151611328	-1174.706909179688	888.435546875	-178.3281555175781	-1161.78125	1038.711303710938	-199.397216796875	-1091.687377929688	712.6422119140625	-104.5525360107422	-1147.846923828125	796.4069213867188	-173.3490447998047	-1085.809204101562	802.9618530273438	-138.9891510009766	-1181.625732421875	1528.7646484375	244.3071746826172	-1200.174194335938	1459.884887695312	315.6792602539062	-1237.239624023438	1192.781860351562	343.7962951660156	-1226.9306640625	1162.221557617188	248.7923431396484	-1107.545776367188	930.779052734375	332.8312377929688	-1177.086669921875	919.6988525390625	393.74365234375	-1226.2021484375	1117.122314453125	363.3006896972656	-1098.001342773438	747.8881225585938	320.9549255371094	-1077.33740234375	822.1085815429688	352.896484375	-1136.687866210938	819.533447265625	399.4917907714844	-1193.731811523438	1721.499877929688	-8.183433532714844	-1056.179077148438	1748.9189453125	159.3991088867188	-1029.66943359375	1752.700805664062	64.28665161132812	-1225.651733398438	1714.633056640625	132.6964721679688	-1156.295043945312	962.5243530273438	-96.83123016357422	-1152.18701171875	953.4471435546875	266.8422546386719	-1039.453247070312	998.7261352539062	204.8957672119141	-1041.41259765625	1012.212890625	-30.29866218566895	-1123.660400390625	518.31494140625	-37.43430328369141	-1142.411865234375	654.2694091796875	-75.53302001953125	-1226.874633789062	42.59022903442383	-30.93220901489258	-1207.4658203125	288.6929321289062	-53.18112945556641	-1008.330993652344	41.61731719970703	36.16142272949219	-1068.062377929688	50.49324417114258	51.97048187255859	-1103.012451171875	42.42982864379883	-48.54646301269531	-1297.409423828125	50.77626419067383	20.74887657165527	-1135.576782226562	525.62060546875	220.2265167236328	-1120.282592773438	794.3750610351562	269.9823913574219	-1242.609130859375	46.46374130249023	181.7329711914062	-1162.147094726562	404.2284545898438	215.6851654052734	-1007.732177734375	45.80840301513672	151.6089630126953	-1069.79931640625	50.92559814453125	119.1258926391602	-1093.716064453125	45.19234085083008	212.1556549072266	-1293.71435546875	46.62836074829102	133.5294036865234	
3	0.02	-1254.666748046875	1076.909057617188	174.2326202392578	-1253.471923828125	1067.155517578125	10.33302974700928	-1261.19287109375	1126.678833007812	81.82100677490234	-1042.30419921875	1325.106689453125	93.14261627197266	-1290.041259765625	1271.347412109375	75.32614898681641	-1244.492797851562	1539.758422851562	63.01396179199219	-1084.746459960938	1450.737060546875	83.09043121337891	-1299.313110351562	1403.063720703125	141.1550445556641	-1253.5302734375	1496.073120117188	-35.77236938476562	-1144.805053710938	1502.47314453125	-102.135383605957	-1168.658081054688	1373.678100585938	-177.8390655517578	-1169.291137695312	1154.935791015625	-196.7302093505859	-1231.542724609375	1146.790161132812	-111.0838012695312	-1101.765380859375	898.0851440429688	-129.6761169433594	-1174.314575195312	888.418212890625	-178.4277191162109	-1161.40673828125	1038.683227539062	-199.4137573242188	-1091.073608398438	712.6249389648438	-104.5908584594727	-1147.279907226562	796.4009399414062	-173.4364013671875	-1085.272216796875	802.9833374023438	-139.0271606445312	-1181.9345703125	1528.749633789062	244.3007507324219	-1200.5166015625	1459.913696289062	315.6693725585938	-1237.479125976562	1192.730590820312	343.7379760742188	-1227.086791992188	1162.239990234375	248.7534790039062	-1107.184448242188	931.0216674804688	332.6239624023438	-1176.730346679688	919.705810546875	393.5036010742188	-1226.3994140625	1117.05419921875	363.1505432128906	-1097.16015625	748.1849975585938	320.5162048339844	-1076.751831054688	822.41943359375	352.6170959472656	-1136.18798828125	819.6566162109375	399.0993957519531	-1193.026611328125	1721.814208984375	-8.243178367614746	-1055.690185546875	1748.464477539062	159.5778961181641	-1028.879638671875	1752.15087890625	64.51047515869141	-1225.187866210938	1715.002319335938	132.6997528076172	-1156.123413085938	962.51318359375	-96.72254943847656	-1150.165161132812	955.7573852539062	269.3771362304688	-1039.581298828125	998.7470703125	205.1017608642578	-1041.386840820312	1012.206359863281	-30.0725212097168	-1123.667846679688	518.3126831054688	-37.33370208740234	-1142.359375	654.2625122070312	-75.4361572265625	-1226.878784179688	42.59299468994141	-30.93483352661133	-1207.453125	288.7021789550781	-53.16703033447266	-1008.333129882812	41.61658477783203	36.16849517822266	-1068.063232421875	50.48765563964844	51.98509979248047	-1103.018310546875	42.43388748168945	-48.54510116577148	-1297.408203125	50.77375030517578	20.74946212768555	-1135.78173828125	525.6495971679688	220.3316955566406	-1120.393676757812	794.3856201171875	270.1106872558594	-1242.613037109375	46.45908737182617	181.7304534912109	-1162.266723632812	404.2241821289062	215.7308959960938	-1007.733581542969	45.8128547668457	151.6111145019531	-1069.806274414062	50.93693542480469	119.1393585205078	-1093.725463867188	45.18827438354492	212.1653289794922	-1293.7587890625	46.64748001098633	133.5007934570312	
4	0.03	-1254.809936523438	1076.903686523438	174.2462463378906	-1253.4521484375	1067.120971679688	10.36869239807129	-1261.210815429688	1126.647216796875	81.84778594970703	-1042.41357421875	1325.142333984375	93.29226684570312	-1290.145141601562	1271.302001953125	75.26743316650391	-1244.74658203125	1539.741333007812	62.9438591003418	-1084.919921875	1450.766235351562	83.18959808349609	-1299.4482421875	1403.048217773438	141.1391296386719	-1253.64599609375	1496.00537109375	-35.81526565551758	-1144.84912109375	1502.432495117188	-102.0757369995117	-1168.483764648438	1373.637817382812	-177.7974853515625	-1168.906372070312	1154.905883789062	-196.7382202148438	-1231.293823242188	1146.681518554688	-111.1842193603516	-1101.21435546875	898.1482543945312	-129.7101135253906	-1173.774169921875	888.389404296875	-178.5326843261719	-1160.954345703125	1038.648315429688	-199.4370269775391	-1090.273071289062	712.628173828125	-104.6511001586914	-1146.568481445312	796.4027709960938	-173.5423736572266	-1084.600463867188	803.0421142578125	-139.0743255615234	-1182.306884765625	1528.734375	244.2881927490234	-1200.8994140625	1459.944458007812	315.6646118164062	-1237.72607421875	1192.674072265625	343.6863098144531	-1227.272705078125	1162.25537109375	248.7072601318359	-1106.766723632812	931.2963256835938	332.3751831054688	-1176.310424804688	919.7124633789062	393.2275695800781	-1226.612426757812	1116.97216796875	362.9841918945312	-1096.258056640625	748.5219116210938	320.0262451171875	-1076.093505859375	822.774658203125	352.2749633789062	-1135.581909179688	819.7753295898438	398.6393432617188	-1192.219604492188	1722.161376953125	-8.281379699707031	-1055.098266601562	1747.930786132812	159.7704620361328	-1027.996704101562	1751.522216796875	64.73879241943359	-1224.640502929688	1715.431518554688	132.6858367919922	-1155.92626953125	962.5009155273438	-96.59635162353516	-1148.309936523438	957.8848266601562	271.7488708496094	-1039.72021484375	998.7713012695312	205.3371734619141	-1041.364013671875	1012.19580078125	-29.81512832641602	-1123.656494140625	518.3098754882812	-37.2166633605957	-1142.28466796875	654.2544555664062	-75.32533264160156	-1226.881713867188	42.59646987915039	-30.93633270263672	-1207.432739257812	288.7134399414062	-53.14817810058594	-1008.333129882812	41.61470031738281	36.17566680908203	-1068.062744140625	50.47983551025391	51.99938201904297	-1103.013305664062	42.43662261962891	-48.53262710571289	-1297.408813476562	50.77427673339844	20.75117874145508	-1135.974853515625	525.6742553710938	220.4448089599609	-1120.492309570312	794.396484375	270.2596130371094	-1242.619018554688	46.45426177978516	181.7276763916016	-1162.386352539062	404.2237243652344	215.7857666015625	-1007.736022949219	45.81525421142578	151.6121215820312	-1069.813842773438	50.94590377807617	119.1537475585938	-1093.733764648438	45.18561172485352	212.1787719726562	-1293.798950195312	46.66438674926758	133.4757385253906	
